<?xml version="1.0" encoding="utf-8"?>
<!-- Generator: Adobe Illustrator 21.1.0, SVG Export Plug-In . SVG Version: 6.00 Build 0)  -->
<svg version="1.1" id="Layer_1" xmlns="http://www.w3.org/2000/svg" xmlns:xlink="http://www.w3.org/1999/xlink" x="0px" y="0px"
	 width="200px" height="200px" viewBox="0 0 200 200" style="enable-background:new 0 0 200 200;" xml:space="preserve">
<style type="text/css">
	.st0{fill:#FFFFFF;stroke:#231F20;stroke-width:1.5;stroke-miterlimit:10;}
</style>
<g>
	<rect x="0" y="0" width="110" height="110" fill="none" stroke="black"/>
	<g>
		<path class="st0" d="M65.2,3.5h-22c-2.3,0-4.1,1.8-4.1,4.1v20.7c0,2.3,1.8,4.1,4.1,4.1h22c2.3,0,4.1-1.8,4.1-4.1V7.6
			C69.3,5.3,67.5,3.5,65.2,3.5z"/>
		<path class="st0" d="M40.5,6.6c-1.8,0-3.3-1.5-3.3-3.3S38.7,0,40.5,0h27.4c1.8,0,3.3,1.5,3.3,3.3s-1.5,3.3-3.3,3.3H40.5z"/>
	</g>
	<g>
		<path class="st0" d="M105,65.3v-22c0-2.3-1.8-4.1-4.1-4.1H80.2c-2.3,0-4.1,1.8-4.1,4.1v22c0,2.3,1.8,4.1,4.1,4.1h20.7
			C103.2,69.3,105,67.5,105,65.3z"/>
<!-- problem here -->
		<path class="st0" d="M101.9,40.5c0-1.8,1.5-3.3,3.3-3.3s3.3,1.5,3.3,3.3v27.4c0,1.8-1.5,3.3-3.3,3.3s-3.3-1.5-3.3-3.3V40.5z"/>
	</g>
	<g>
		<path class="st0" d="M43.2,105h22c2.3,0,4.1-1.8,4.1-4.1V80.2c0-2.3-1.8-4.1-4.1-4.1h-22c-2.3,0-4.1,1.8-4.1,4.1v20.7
			C39.1,103.2,41,105,43.2,105z"/>
<!-- problem here -->
		<path class="st0" d="M68,101.9c1.8,0,3.3,1.5,3.3,3.3s-1.5,3.3-3.3,3.3H40.5c-1.8,0-3.3-1.5-3.3-3.3s1.5-3.3,3.3-3.3H68z"/>
	</g>
	<g>
		<path class="st0" d="M3.5,43.2v22c0,2.3,1.8,4.1,4.1,4.1h20.7c2.3,0,4.1-1.8,4.1-4.1v-22c0-2.3-1.8-4.1-4.1-4.1H7.5
			C5.3,39.2,3.5,41,3.5,43.2z"/>
		<path class="st0" d="M6.6,68c0,1.8-1.5,3.3-3.3,3.3S0,69.8,0,68V40.5c0-1.8,1.5-3.3,3.3-3.3s3.3,1.5,3.3,3.3V68z"/>
	</g>
	<circle class="st0" cx="54.2" cy="54.2" r="38"/>
</g>
</svg>
